<svg width="251" height="155" viewBox="0 0 251 155" fill="none" xmlns="http://www.w3.org/2000/svg">
<path d="M11.8524 125.466C8.99237 121.996 -0.627632 93.8358 0.0323676 90.8558C1.50237 84.2158 24.4624 73.1258 37.7124 72.6558C44.2824 72.4158 44.3124 72.4758 45.1924 86.7958C45.9024 98.2958 45.9024 98.2958 38.5424 99.3858C28.4624 100.886 22.5024 104.126 24.9124 106.816C27.5124 109.716 42.8724 114.906 52.5824 116.166C63.4024 117.576 63.2724 118.196 57.7524 90.2858C52.4624 63.5258 52.4424 64.3558 58.3324 65.1558C60.8824 65.5058 67.5924 65.7958 73.2424 65.7958H83.5124C85.3224 99.5058 86.7124 114.926 87.7624 121.796C88.8124 128.676 89.6824 134.636 89.6824 135.046C89.6924 135.456 85.1924 135.796 79.6924 135.796C74.1924 135.796 61.7024 134.886 51.9424 133.766C27.3124 130.956 14.1324 128.226 11.8524 125.466Z" fill="#7C1616"/>
<path d="M140.262 142.366C139.782 141.886 143.092 139.116 147.692 136.146C162.552 126.556 167.532 114.786 162.822 100.406C158.102 85.9858 154.842 92.2758 158.192 109.346C160.302 120.076 160.102 120.546 152.452 122.886C142.202 126.026 140.942 125.716 138.042 119.306C132.822 107.746 132.422 80.7758 137.432 77.1258C140.022 75.2458 173.662 73.1758 176.562 74.7258C179.632 76.3658 183.772 88.0258 185.032 98.5258C187.302 117.526 181.392 137.906 170.302 149.316C167.372 152.326 164.462 154.796 163.832 154.796C163.202 154.796 157.832 152.186 151.902 149.006C145.972 145.826 140.732 142.836 140.262 142.366Z" fill="#7C1616"/>
<path d="M198.072 59.296C199.032 36.186 197.852 38.366 211.052 35.346C225.272 32.086 227.142 32.056 226.262 35.046C220.862 53.506 219.172 91.966 222.812 113.796C223.952 120.676 225.122 127.756 225.402 129.546C225.912 132.796 225.912 132.796 216.802 132.796C210.242 132.796 207.322 132.396 206.372 131.386C202.042 126.746 197.072 83.546 198.072 59.296Z" fill="#7C1616"/>
<path d="M100.302 111.796C95.9524 88.9158 94.5624 41.0358 98.1024 36.2858C99.0524 34.9958 123.672 28.4858 124.512 29.2958C124.692 29.4658 123.582 36.5058 122.042 44.9458C118.082 66.6958 118.022 96.3458 121.892 117.046C123.312 124.606 124.292 130.796 124.082 130.796C123.862 130.796 119.582 130.466 114.552 130.056C103.312 129.136 103.682 129.616 100.302 111.796Z" fill="#7C1616"/>
<path d="M185.062 23.7559C180.652 20.2159 180.652 20.2159 181.822 9.91587C182.992 -0.384126 182.992 -0.384126 185.592 0.205874C201.092 3.70587 218.752 5.12587 234.192 4.10587C252.162 2.92587 252.042 2.87587 247.792 9.79587C244.722 14.7759 244.722 14.7759 235.952 16.3159C229.352 17.4659 212.742 18.7959 204.942 18.7959C204.742 18.7959 205.392 20.1859 206.382 21.8859C208.192 24.9759 208.192 24.9759 202.442 30.3859C196.692 35.7959 196.692 35.7959 193.082 31.5459C191.102 29.2059 187.492 25.7059 185.062 23.7559Z" fill="#7C1616"/>
<path d="M32.5315 44.4639C32.5315 41.5078 33.7058 38.6727 35.7961 36.5825C37.8864 34.4922 40.7214 33.3179 43.6775 33.3179C46.6336 33.3179 49.4686 34.4922 51.5589 36.5825C53.6492 38.6727 54.8235 41.5078 54.8235 44.4639C54.8235 47.42 53.6492 50.255 51.5589 52.3453C49.4686 54.4356 46.6336 55.6099 43.6775 55.6099C40.7214 55.6099 37.8864 54.4356 35.7961 52.3453C33.7058 50.255 32.5315 47.42 32.5315 44.4639Z" fill="#7C1616"/>
</svg>
